<svg xmlns="http://www.w3.org/2000/svg" xml:space="preserve" id="Layer_1" x="0" y="0" version="1.1" viewBox="0 0 55.2 38.4"><style>.st1{fill:#c8102e}.st2{fill:#012169}</style><path d="M2.87 38.4h49.46c1.59-.09 2.87-1.42 2.87-3.03V3.03c0-1.66-1.35-3.02-3.01-3.03H3.01A3.037 3.037 0 0 0 0 3.03v32.33c0 1.62 1.28 2.95 2.87 3.04" style="fill:#fefefe"/><path d="M23.74 23.03V38.4h7.68V23.03H55.2v-7.68H31.42V0h-7.68v15.35H0v7.68z" class="st1"/><path d="M33.98 12.43V0h18.23c1.26.02 2.34.81 2.78 1.92zM33.98 25.97V38.4h18.35c1.21-.07 2.23-.85 2.66-1.92zM21.18 25.97V38.4H2.87a3.04 3.04 0 0 1-2.66-1.94zM21.18 12.43V0H2.99A3.04 3.04 0 0 0 .21 1.94zM0 12.8h7.65L0 8.97zM55.2 12.8h-7.69l7.69-3.85zM55.2 25.6h-7.69l7.69 3.85zM0 25.6h7.65L0 29.43z" class="st2"/><path d="M55.2 3.25 36.15 12.8h4.26L55.2 5.4zM19.01 25.6h-4.26L0 32.98v2.15l19.05-9.53zM10.52 12.81h4.26L0 5.41v2.14zM44.63 25.59h-4.26l14.83 7.43v-2.14z" class="st1"/></svg>