<svg xmlns="http://www.w3.org/2000/svg" xml:space="preserve" viewBox="0 0 120.64 122.88"><path d="M66.6 108.91a8.3 8.3 0 0 1 2.28 5.85c-.03 2.11-.84 4.2-2.44 5.79l-.12.12a7.95 7.95 0 0 1-5.61 2.2 7.95 7.95 0 0 1-5.55-2.37C37.5 102.85 20.03 84.9 2.48 67.11c-.07-.05-.13-.1-.19-.16A8.3 8.3 0 0 1 0 61.08c.03-2.11.85-4.21 2.45-5.8l.27-.26C20.21 37.47 37.65 19.87 55.17 2.36A7.97 7.97 0 0 1 60.71 0c2.01-.03 4.03.7 5.61 2.21l.15.15a8.32 8.32 0 0 1 2.41 5.76c.03 2.1-.73 4.22-2.28 5.85L19.38 61.23zm51.77-2a8.27 8.27 0 0 1 2.26 5.83c-.03 2.11-.84 4.2-2.44 5.79l-.12.12a7.99 7.99 0 0 1-5.61 2.21 7.95 7.95 0 0 1-5.55-2.37C89.63 101.2 71.76 84.2 54.24 67.12c-.07-.05-.14-.11-.21-.17a8.34 8.34 0 0 1-2.28-5.87c.03-2.11.85-4.21 2.45-5.8 17.5-16.95 35.07-33.84 52.6-50.77l.12-.13a7.95 7.95 0 0 1 5.54-2.35c2.01-.03 4.03.7 5.61 2.21l.15.15a8.32 8.32 0 0 1 2.41 5.76c.03 2.1-.73 4.22-2.28 5.85L71.17 61.23z"/></svg>