<svg xmlns="http://www.w3.org/2000/svg" xml:space="preserve" viewBox="0 0 121.7 122.88"><path d="M53.61 0c14.79 0 28.2 6.02 37.92 15.69 9.72 9.72 15.69 23.09 15.69 37.92 0 10.82-3.23 20.93-8.73 29.34l23.21 25.29-16.01 14.63-22.38-24.61a53.43 53.43 0 0 1-29.7 8.97c-14.79 0-28.2-6.02-37.92-15.69C5.98 81.81 0 68.44 0 53.61c0-14.79 6.02-28.2 15.69-37.92C25.41 5.98 38.78 0 53.61 0M29.42 42.19h4.84l11.83-13.25a2.874 2.874 0 0 1 4.05-.23 2.874 2.874 0 0 1 .23 4.05l-8.42 9.43h25.8l-8.42-9.43c-1.05-1.18-.95-3 .23-4.05s3-.95 4.05.23L75.44 42.2h9.02c.97 0 1.77.8 1.77 1.77v4.99c0 .97-.8 1.77-1.77 1.77H80.7L78.77 75.1c-.05.67-.56 1.23-1.23 1.23H31.93c-.67 0-1.17-.55-1.23-1.23l-1.93-24.37h-3.76c-.97 0-1.77-.8-1.77-1.77v-4.99c0-.97.8-1.77 1.77-1.77h4.34zm22.68 9.48v16.16h5.65V51.67zm-5.28 16.17V51.67H41.3v16.16h5.52zm16.2-16.17v16.16h5.63V51.67zm24.26-31.73C78.67 11.33 66.75 5.98 53.61 5.98s-25.06 5.35-33.67 13.96C11.33 28.56 5.98 40.47 5.98 53.61s5.35 25.06 13.96 33.67 20.53 13.96 33.67 13.96 25.06-5.35 33.67-13.96 13.96-20.53 13.96-33.67-5.34-25.05-13.96-33.67"/></svg>